# xmcd CD database file
#
# Track frame offsets:
#	150
#	9650
#	18947
#	28902
#	40485
#	63845
#	76225
#	93860
#	105747
#	117517
#	127005
#
# Disc length: 1874 seconds
#
# Revision: 2
# Processed by: cddbd v1.5.1PL0 Copyright (c) Steve Scherf et al.
# Submitted via: CDex 1.51
#
DISCID=8907500b
DTITLE=The Birds - The best of, Greatest Hits - Volume 2
DYEAR=1972
DGENRE=Rock
TTITLE0=Ballad of Easy Rider
TTITLE1=Wasn't born to follow
TTITLE2=Jesus Is Just Alright
TTITLE3=He Was a Friend of Mine
TTITLE4=Chestnut Mare
TTITLE5=Tiffany Queen
TTITLE6=Drug Stpre Truck Drivin' Man
TTITLE7=You Ain't Going Nowhere
TTITLE8=Citizen Kane
TTITLE9=I Wanna Grow Up to Be a Politician
TTITLE10=America's Great National Pastime
EXTD=YEAR: 1972
EXTT0=
EXTT1=
EXTT2=
EXTT3=
EXTT4=
EXTT5=
EXTT6=
EXTT7=
EXTT8=
EXTT9=
EXTT10=
PLAYORDER=
